<svg xmlns="http://www.w3.org/2000/svg" width="288" height="131" viewBox="0 0 288 131" fill="none">
  <path d="M57.5647 40.7187C61.0104 33.4428 45.4358 37.2236 45.4358 37.2236C29.2279 40.5325 2.96454 110.07 1.53018 119.739C0.0954759 129.408 10.6029 121.858 10.6029 121.858C12.0944 117.193 13.659 112.611 15.2457 108.172L30.0063 98.5985C32.0039 123.714 47.4105 129.784 49.8899 129.395C53.3406 128.851 50.3326 122.329 50.3326 122.329C29.939 107.303 54.1198 47.995 57.5647 40.7187ZM29.8056 91.6663C26.837 92.8796 22.3472 96.1269 18.597 99.0744C27.1996 76.409 35.4318 59.5019 35.4318 59.5019C31.5854 72.348 29.9625 82.9484 29.8056 91.6663Z" fill="#F93B21"/>
  <path d="M114.22 37.186C114.22 37.186 107.156 30.9474 102.76 35.2591C100.719 37.2587 94.7629 46.0059 90.4844 55.0619C85.5424 65.5217 82.363 76.3074 82.363 76.3074C82.363 76.3074 83.494 63.1963 81.8558 62.8574C80.2176 62.5186 73.4037 63.8561 73.4037 63.8561L62.0358 83.6499C62.0358 83.6499 70.8533 55.959 72.4635 54.93C72.4635 54.93 65.8444 48.2369 62.7015 52.8709C62.7015 52.8709 49.5394 90.0619 50.5884 96.8872C50.5884 96.8872 58.822 101.171 61.1163 100.36C63.4102 99.5481 71.8648 81.4185 71.8648 81.4185C71.8648 81.4185 71.0993 96.4842 80.9006 95.3914L83.8834 94.3361C83.8834 94.3361 102.097 40.2505 114.22 37.186Z" fill="#F93B21"/>
  <path d="M128.303 71.0732C122.184 75.8497 110.672 81.6997 109.889 79.2946C109.544 78.2329 109.652 73.3343 112.203 66.6438C124.445 60.4242 135.707 49.7475 137.777 45.3059C139.921 40.7083 138.671 31.4922 127.066 35.5224C118.948 38.3427 108.553 53.1774 103.805 64.709C99.0857 66.4418 96.8504 65.9186 96.3703 66.8859L96.6659 68.0716C96.6659 68.0716 97.3851 70.5799 101.914 70.1806C101.222 72.7905 101.036 74.9942 101.42 76.5323C103.518 84.9483 112.044 90.2442 121.202 85.1967C130.361 80.1506 130.371 80.1479 130.371 80.1479C130.371 80.1479 134.422 66.2965 128.303 71.0732ZM131.547 40.6281C137.052 39.2555 124.032 54.7219 113.212 59.5144C117.058 53.2193 126.042 42.0008 131.547 40.6281Z" fill="#F93B21"/>
  <path d="M150.37 28.892C148.154 29.7368 140.02 40.9542 141.062 43.6891C142.105 46.4241 144.487 49.4647 146.631 49.7389C148.775 50.0108 153.829 49.7178 154.9 52.1701C155.97 54.6219 159.617 59.1939 153.067 65.9129C146.517 72.6312 142.235 73.8005 142.997 71.3313C143.757 68.8632 146.785 56.4714 144.004 58.4516C141.223 60.431 136.093 68.3784 136.762 70.848C137.432 73.3176 145.093 81.2913 149.424 79.0959C153.755 76.9016 164.038 72.846 165.184 60.1531C166.329 47.4604 152.802 43.6402 151.151 43.5887C149.5 43.5373 154.716 35.5437 154.716 35.5437C154.716 35.5437 152.469 40.3496 156.348 39.8245C160.227 39.2989 161.176 38.9368 162.339 34.1372C163.501 29.3357 152.586 28.048 150.37 28.892Z" fill="#F93B21"/>
  <path d="M180.617 22.1757C180.616 22.1761 180.614 22.1766 180.612 22.1769C177.893 20.6911 175.295 21.7558 175.295 21.7558C172.036 26.5202 168.451 42.9049 168.187 52.7417C168.045 58.0282 169.962 62.5518 171.548 65.3775C171.548 65.3775 174.459 71.9039 179.337 71.3036C184.216 70.7032 191.722 65.5123 192.165 51.5231C193.124 21.23 185.137 21.0487 180.617 22.1757ZM183.996 45.1364C183.895 59.4593 180.419 63.7717 177.683 62.3058C177.54 61.8227 177.329 61.3049 177.032 60.7485C174.757 56.4844 179.017 40.6124 181.762 31.5169C182.995 33.2601 184.053 37.0826 183.996 45.1364Z" fill="#F93B21"/>
  <path d="M240.766 50.042C240.766 50.042 238.866 52.6139 237.52 49.5831C236.175 46.5523 239.468 34.6728 241.23 25.7704C242.992 16.8671 243.994 12.6465 240.748 10.2763C237.502 7.90615 234.307 8.15888 234.307 8.15888C234.307 8.15888 226.004 21.8175 224.957 24.8766C224.957 24.8766 226.674 15.3282 223.243 14.1497C219.811 12.9705 217.137 12.4903 217.137 12.4903C217.137 12.4903 216.119 18.1966 211.228 24.9874C211.164 25.077 211.099 25.1681 211.035 25.2577C214.289 13.1016 203.053 14.9438 203.053 14.9438C203.053 14.9438 204.87 15.5193 203.078 20.3696C198.251 33.4351 195.249 49.9534 194.201 57.3623C193.151 64.7721 202.178 66.6113 201.598 65.738C201.266 65.2388 201.486 59.0478 203.11 50.6667C206.665 45.8008 211.925 38.5898 215.826 33.1805L214.903 42.1434C214.903 42.1434 218.642 47.9431 221.494 48.25C224.345 48.556 226.971 34.273 230.88 28.2997C230.88 28.2997 225.74 47.7113 230.814 53.0585C235.888 58.4062 239.492 57.2654 240.98 53.8037C242.499 50.2656 240.766 50.042 240.766 50.042Z" fill="#F93B21"/>
  <path d="M276.301 25.8577C274.78 30.088 272.326 32.2119 267.611 36.6875C262.895 41.1624 257.837 43.3065 254.981 38.3809C254.814 38.0936 254.674 37.7996 254.55 37.5022C258.523 34.3773 263.447 29.587 268.021 22.5607C276.355 9.75832 275.741 6.74802 275.741 6.74802C275.741 6.74802 271.574 0.913588 264.995 1.17831C258.417 1.4437 251.271 14.6853 247.204 28.2876C246.387 31.021 246.2 33.5584 246.463 35.8695C242.347 39.4346 240.982 39.752 240.982 39.752C240.982 39.752 244.632 43.5159 247.408 42.1365C247.638 42.022 247.919 41.8762 248.239 41.7043C250.852 46.7712 255.641 49.913 259.108 50.4463C265.03 51.3552 274.92 46.9641 280.81 39.5832C286.699 32.2023 288.222 27.973 283.965 24.4973C279.706 21.0214 277.824 21.6298 276.301 25.8577ZM258.341 19.8385C266.413 4.96275 267.253 9.69079 267.253 9.69079C267.253 9.69079 270.918 10.0688 255.13 29.3675C253.764 29.0099 257.295 21.7661 258.341 19.8385Z" fill="#F93B21"/>
  <path d="M57.5647 40.7187C61.0104 33.4428 45.4358 37.2236 45.4358 37.2236C29.2279 40.5325 2.96454 110.07 1.53018 119.739C0.0954759 129.408 10.6029 121.858 10.6029 121.858C12.0944 117.193 13.659 112.611 15.2457 108.172L30.0063 98.5985C32.0039 123.714 47.4105 129.784 49.8899 129.395C53.3406 128.851 50.3326 122.329 50.3326 122.329C29.939 107.303 54.1198 47.995 57.5647 40.7187ZM29.8056 91.6663C26.837 92.8796 22.3472 96.1269 18.597 99.0744C27.1996 76.409 35.4318 59.5019 35.4318 59.5019C31.5854 72.348 29.9625 82.9484 29.8056 91.6663Z" stroke="#F93B21" stroke-width="2"/>
  <path d="M114.22 37.186C114.22 37.186 107.156 30.9474 102.76 35.2591C100.719 37.2587 94.7629 46.0059 90.4844 55.0619C85.5424 65.5217 82.363 76.3074 82.363 76.3074C82.363 76.3074 83.494 63.1963 81.8558 62.8574C80.2176 62.5186 73.4037 63.8561 73.4037 63.8561L62.0358 83.6499C62.0358 83.6499 70.8533 55.959 72.4635 54.93C72.4635 54.93 65.8444 48.2369 62.7015 52.8709C62.7015 52.8709 49.5394 90.0619 50.5884 96.8872C50.5884 96.8872 58.822 101.171 61.1163 100.36C63.4102 99.5481 71.8648 81.4185 71.8648 81.4185C71.8648 81.4185 71.0993 96.4842 80.9006 95.3914L83.8834 94.3361C83.8834 94.3361 102.097 40.2505 114.22 37.186Z" stroke="#F93B21" stroke-width="2"/>
  <path d="M128.303 71.0732C122.184 75.8497 110.672 81.6997 109.889 79.2946C109.544 78.2329 109.652 73.3343 112.203 66.6438C124.445 60.4242 135.707 49.7475 137.777 45.3059C139.921 40.7083 138.671 31.4922 127.066 35.5224C118.948 38.3427 108.553 53.1774 103.805 64.709C99.0857 66.4418 96.8504 65.9186 96.3703 66.8859L96.6659 68.0716C96.6659 68.0716 97.3851 70.5799 101.914 70.1806C101.222 72.7905 101.036 74.9942 101.42 76.5323C103.518 84.9483 112.044 90.2442 121.202 85.1967C130.361 80.1506 130.371 80.1479 130.371 80.1479C130.371 80.1479 134.422 66.2965 128.303 71.0732ZM131.547 40.6281C137.052 39.2555 124.032 54.7219 113.212 59.5144C117.058 53.2193 126.042 42.0008 131.547 40.6281Z" stroke="#F93B21" stroke-width="2"/>
  <path d="M150.37 28.892C148.154 29.7368 140.02 40.9542 141.062 43.6891C142.105 46.4241 144.487 49.4647 146.631 49.7389C148.775 50.0108 153.829 49.7178 154.9 52.1701C155.97 54.6219 159.617 59.1939 153.067 65.9129C146.517 72.6312 142.235 73.8005 142.997 71.3313C143.757 68.8632 146.785 56.4714 144.004 58.4516C141.223 60.431 136.093 68.3784 136.762 70.848C137.432 73.3176 145.093 81.2913 149.424 79.0959C153.755 76.9016 164.038 72.846 165.184 60.1531C166.329 47.4604 152.802 43.6402 151.151 43.5887C149.5 43.5373 154.716 35.5437 154.716 35.5437C154.716 35.5437 152.469 40.3496 156.348 39.8245C160.227 39.2989 161.176 38.9368 162.339 34.1372C163.501 29.3357 152.586 28.048 150.37 28.892Z" stroke="#F93B21" stroke-width="2"/>
  <path d="M180.617 22.1757C180.616 22.1761 180.614 22.1766 180.612 22.1769C177.893 20.6911 175.295 21.7558 175.295 21.7558C172.036 26.5202 168.451 42.9049 168.187 52.7417C168.045 58.0282 169.962 62.5518 171.548 65.3775C171.548 65.3775 174.459 71.9039 179.337 71.3036C184.216 70.7032 191.722 65.5123 192.165 51.5231C193.124 21.23 185.137 21.0487 180.617 22.1757ZM183.996 45.1364C183.895 59.4593 180.419 63.7717 177.683 62.3058C177.54 61.8227 177.329 61.3049 177.032 60.7485C174.757 56.4844 179.017 40.6124 181.762 31.5169C182.995 33.2601 184.053 37.0826 183.996 45.1364Z" stroke="#F93B21" stroke-width="2"/>
  <path d="M240.766 50.042C240.766 50.042 238.866 52.6139 237.52 49.5831C236.175 46.5523 239.468 34.6728 241.23 25.7704C242.992 16.8671 243.994 12.6465 240.748 10.2763C237.502 7.90615 234.307 8.15888 234.307 8.15888C234.307 8.15888 226.004 21.8175 224.957 24.8766C224.957 24.8766 226.674 15.3282 223.243 14.1497C219.811 12.9705 217.137 12.4903 217.137 12.4903C217.137 12.4903 216.119 18.1966 211.228 24.9874C211.164 25.077 211.099 25.1681 211.035 25.2577C214.289 13.1016 203.053 14.9438 203.053 14.9438C203.053 14.9438 204.87 15.5193 203.078 20.3696C198.251 33.4351 195.249 49.9534 194.201 57.3623C193.151 64.7721 202.178 66.6113 201.598 65.738C201.266 65.2388 201.486 59.0478 203.11 50.6667C206.665 45.8008 211.925 38.5898 215.826 33.1805L214.903 42.1434C214.903 42.1434 218.642 47.9431 221.494 48.25C224.345 48.556 226.971 34.273 230.88 28.2997C230.88 28.2997 225.74 47.7113 230.814 53.0585C235.888 58.4062 239.492 57.2654 240.98 53.8037C242.499 50.2656 240.766 50.042 240.766 50.042Z" stroke="#F93B21" stroke-width="2"/>
  <path d="M276.301 25.8577C274.78 30.088 272.326 32.2119 267.611 36.6875C262.895 41.1624 257.837 43.3065 254.981 38.3809C254.814 38.0936 254.674 37.7996 254.55 37.5022C258.523 34.3773 263.447 29.587 268.021 22.5607C276.355 9.75832 275.741 6.74802 275.741 6.74802C275.741 6.74802 271.574 0.913588 264.995 1.17831C258.417 1.4437 251.271 14.6853 247.204 28.2876C246.387 31.021 246.2 33.5584 246.463 35.8695C242.347 39.4346 240.982 39.752 240.982 39.752C240.982 39.752 244.632 43.5159 247.408 42.1365C247.638 42.022 247.919 41.8762 248.239 41.7043C250.852 46.7712 255.641 49.913 259.108 50.4463C265.03 51.3552 274.92 46.9641 280.81 39.5832C286.699 32.2023 288.222 27.973 283.965 24.4973C279.706 21.0214 277.824 21.6298 276.301 25.8577ZM258.341 19.8385C266.413 4.96275 267.253 9.69079 267.253 9.69079C267.253 9.69079 270.918 10.0688 255.13 29.3675C253.764 29.0099 257.295 21.7661 258.341 19.8385Z" stroke="#F93B21" stroke-width="2"/>
</svg>