<svg xmlns="http://www.w3.org/2000/svg" width="352" height="221" viewBox="0 0 352 221" fill="none">
  <g filter="url(#filter0_d_1_2202)">
    <path d="M314.691 1.66436C308.729 2.29326 303.351 5.52584 299.993 10.4914C297.206 14.6127 296.047 19.5803 296.668 24.4476C296.356 29.2654 293.282 44.9402 290.763 53.299C290.598 53.8471 290.435 54.3982 290.274 54.951C286.129 53.0802 281.366 51.9669 276.121 52.1782C274.396 52.248 272.663 52.4973 270.968 52.9197C265.799 54.2086 261.352 56.9926 257.529 60.6914C252.003 58.7329 247.334 58.8474 245.627 58.9824C241.466 59.3119 237.568 60.906 234.411 63.4715C234.324 63.4549 234.254 63.4417 234.2 63.4326C229.223 62.539 224.202 62.9095 219.966 65.4237C217.74 65.3084 215.61 65.4408 213.684 65.7561C208.868 66.5443 204.668 69.0076 201.637 72.497C200.24 72.2784 198.753 72.1596 197.173 72.1813C193.417 71.4726 189.516 71.5753 185.716 72.5227C184.544 72.815 183.425 73.1776 182.393 73.6013C179.333 74.855 176.645 76.8402 174.533 79.3582C169.493 78.4893 164.674 78.6782 161.305 79.5181C160.428 79.7368 159.564 80.0073 158.731 80.324C157.363 80.846 154.922 81.78 151.644 84.6726C148.02 84.26 144.186 84.5035 140.278 85.478C139.119 85.767 137.93 86.1228 136.74 86.536C136.575 86.5933 136.413 86.6594 136.249 86.7191C131.31 84.3454 124.689 82.5963 117.273 84.4453C112.911 85.5328 108.891 87.7892 105.651 90.9663C102.904 93.6595 99.4785 98.489 96.2897 103.711C95.5324 100.513 94.0821 97.4945 91.9432 94.8673C85.2723 86.6749 74.18 84.1516 59.856 87.5659C50.4905 89.6412 42.5778 96.2633 34.1248 109.051C29.3639 116.251 24.3285 125.6 19.1583 136.836C11.8155 152.793 3.08137 175.471 1.77529 184.281C-0.0166413 196.354 5.49954 203.405 8.94685 206.533C14.6659 211.722 22.5091 213.56 30.4666 211.576C36.0665 210.18 40.7658 207.087 42.5258 205.822C43.0155 205.47 43.4871 205.098 43.941 204.707C45.7095 206.599 47.4012 208.096 48.858 209.245C52.3733 212.018 61.7349 218.632 71.9444 217.029C72.6014 216.925 73.3446 217.13 73.9869 216.97C73.9869 216.97 73.9882 216.97 73.9895 216.969C80.3928 215.373 85.614 210.716 88.4604 204.781C91.6016 198.232 90.9178 191.442 89.4998 186.472C90.8134 185.772 92.0287 184.847 93.2318 183.79C95.7364 184.207 98.3294 184.233 100.982 183.937C102.526 183.766 104.039 183.395 105.504 182.879L108.389 181.846C112.675 180.329 116.274 177.43 118.688 173.687C124.853 176.195 131.834 176.815 138.863 175.062L138.864 175.061C141.837 174.32 144.759 173.164 147.546 171.628C152.161 169.084 154.358 167.875 155.406 167.298C161.303 169.204 166.252 168.653 169.282 167.898C171.003 167.469 172.675 166.846 174.244 166.05C174.475 165.934 174.729 165.809 175.002 165.676C177.223 164.591 181.177 162.654 185.331 159.409C188.739 160.571 192.629 161.612 196.642 161.119C197.811 160.976 199.136 161.327 200.298 161.037C200.299 161.037 200.298 161.037 200.3 161.037C203.753 160.175 207.253 157.995 210.703 155.578C213.844 156.219 217.112 156.003 220.458 155.168C226.919 153.557 232.188 148.827 234.588 142.647C234.688 142.389 234.904 142.614 234.993 142.353C243.537 148.293 251.635 148.237 256.073 147.131L256.074 147.13C260.214 146.098 263.797 143.464 266.811 140.497C267.3 140.598 267.729 140.446 268.219 140.521C272.488 141.177 277.013 140.789 281.73 139.613C290.796 137.353 299.765 131.783 306.271 124.603C310.983 126.587 315.346 128.56 320.696 127.527C321.377 127.396 323.222 126.897 323.867 126.736C323.867 126.736 323.867 126.736 323.868 126.736C339.861 122.749 342.457 109.783 342.92 106.097C343.499 101.483 342.576 96.7139 340.524 92.6768C340.357 90.8079 339.891 88.82 339.166 87.0031C339.155 86.9687 339.128 86.868 339.116 86.8256C339.828 80.7358 342.925 64.2736 344.292 59.6739C347.75 48.0483 350.972 31.7401 346.707 20.1413C341.366 5.61198 326.777 0.384809 314.691 1.66436Z" fill="white"/>
    <path d="M314.691 1.66436C308.729 2.29326 303.351 5.52584 299.993 10.4914C297.206 14.6127 296.047 19.5803 296.668 24.4476C296.356 29.2654 293.282 44.9402 290.763 53.299C290.598 53.8471 290.435 54.3982 290.274 54.951C286.129 53.0802 281.366 51.9669 276.121 52.1782C274.396 52.248 272.663 52.4973 270.968 52.9197C265.799 54.2086 261.352 56.9926 257.529 60.6914C252.003 58.7329 247.334 58.8474 245.627 58.9824C241.466 59.3119 237.568 60.906 234.411 63.4715C234.324 63.4549 234.254 63.4417 234.2 63.4326C229.223 62.539 224.202 62.9095 219.966 65.4237C217.74 65.3084 215.61 65.4408 213.684 65.7561C208.868 66.5443 204.668 69.0076 201.637 72.497C200.24 72.2784 198.753 72.1596 197.173 72.1813C193.417 71.4726 189.516 71.5753 185.716 72.5227C184.544 72.815 183.425 73.1776 182.393 73.6013C179.333 74.855 176.645 76.8402 174.533 79.3582C169.493 78.4893 164.674 78.6782 161.305 79.5181C160.428 79.7368 159.564 80.0073 158.731 80.324C157.363 80.846 154.922 81.78 151.644 84.6726C148.02 84.26 144.186 84.5035 140.278 85.478C139.119 85.767 137.93 86.1228 136.74 86.536C136.575 86.5933 136.413 86.6594 136.249 86.7191C131.31 84.3454 124.689 82.5963 117.273 84.4453C112.911 85.5328 108.891 87.7892 105.651 90.9663C102.904 93.6595 99.4785 98.489 96.2897 103.711C95.5324 100.513 94.0821 97.4945 91.9432 94.8673C85.2723 86.6749 74.18 84.1516 59.856 87.5659C50.4905 89.6412 42.5778 96.2633 34.1248 109.051C29.3639 116.251 24.3285 125.6 19.1583 136.836C11.8155 152.793 3.08137 175.471 1.77529 184.281C-0.0166413 196.354 5.49954 203.405 8.94685 206.533C14.6659 211.722 22.5091 213.56 30.4666 211.576C36.0665 210.18 40.7658 207.087 42.5258 205.822C43.0155 205.47 43.4871 205.098 43.941 204.707C45.7095 206.599 47.4012 208.096 48.858 209.245C52.3733 212.018 61.7349 218.632 71.9444 217.029C72.6014 216.925 73.3446 217.13 73.9869 216.97C73.9869 216.97 73.9882 216.97 73.9895 216.969C80.3928 215.373 85.614 210.716 88.4604 204.781C91.6016 198.232 90.9178 191.442 89.4998 186.472C90.8134 185.772 92.0287 184.847 93.2318 183.79C95.7364 184.207 98.3294 184.233 100.982 183.937C102.526 183.766 104.039 183.395 105.504 182.879L108.389 181.846C112.675 180.329 116.274 177.43 118.688 173.687C124.853 176.195 131.834 176.815 138.863 175.062L138.864 175.061C141.837 174.32 144.759 173.164 147.546 171.628C152.161 169.084 154.358 167.875 155.406 167.298C161.303 169.204 166.252 168.653 169.282 167.898C171.003 167.469 172.675 166.846 174.244 166.05C174.475 165.934 174.729 165.809 175.002 165.676C177.223 164.591 181.177 162.654 185.331 159.409C188.739 160.571 192.629 161.612 196.642 161.119C197.811 160.976 199.136 161.327 200.298 161.037C200.299 161.037 200.298 161.037 200.3 161.037C203.753 160.175 207.253 157.995 210.703 155.578C213.844 156.219 217.112 156.003 220.458 155.168C226.919 153.557 232.188 148.827 234.588 142.647C234.688 142.389 234.904 142.614 234.993 142.353C243.537 148.293 251.635 148.237 256.073 147.131L256.074 147.13C260.214 146.098 263.797 143.464 266.811 140.497C267.3 140.598 267.729 140.446 268.219 140.521C272.488 141.177 277.013 140.789 281.73 139.613C290.796 137.353 299.765 131.783 306.271 124.603C310.983 126.587 315.346 128.56 320.696 127.527C321.377 127.396 323.222 126.897 323.867 126.736C323.867 126.736 323.867 126.736 323.868 126.736C339.861 122.749 342.457 109.783 342.92 106.097C343.499 101.483 342.576 96.7139 340.524 92.6768C340.357 90.8079 339.891 88.82 339.166 87.0031C339.155 86.9687 339.128 86.868 339.116 86.8256C339.828 80.7358 342.925 64.2736 344.292 59.6739C347.75 48.0483 350.972 31.7401 346.707 20.1413C341.366 5.61198 326.777 0.384809 314.691 1.66436Z" stroke="#E2E2E2" stroke-width="0.989395" stroke-miterlimit="10"/>
  </g>
  <defs>
    <filter id="filter0_d_1_2202" x="0.271556" y="0.983948" width="350.948" height="219.425" filterUnits="userSpaceOnUse" color-interpolation-filters="sRGB">
      <feFlood flood-opacity="0" result="BackgroundImageFix"/>
      <feColorMatrix in="SourceAlpha" type="matrix" values="0 0 0 0 0 0 0 0 0 0 0 0 0 0 0 0 0 0 127 0" result="hardAlpha"/>
      <feOffset dx="0.659597" dy="1.31919"/>
      <feGaussianBlur stdDeviation="0.659597"/>
      <feComposite in2="hardAlpha" operator="out"/>
      <feColorMatrix type="matrix" values="0 0 0 0 0 0 0 0 0 0 0 0 0 0 0 0 0 0 0.25 0"/>
      <feBlend mode="normal" in2="BackgroundImageFix" result="effect1_dropShadow_1_2202"/>
      <feBlend mode="normal" in="SourceGraphic" in2="effect1_dropShadow_1_2202" result="shape"/>
    </filter>
  </defs>
</svg>