<svg xmlns="http://www.w3.org/2000/svg" width="56" height="92" viewBox="0 0 56 92" fill="none">
  <path d="M37.3529 8.33585C35.0112 1.96701 26.2015 2.8998 26.2015 2.8998C27.4561 7.32741 22.346 31.5665 19.3772 41.4175C16.407 51.2689 13.2788 64.1113 18.2984 71.5493C22.4233 77.6611 29.5178 77.2548 29.5178 77.2548C29.5178 77.2548 28.6101 74.8238 28.1153 71.6299C27.6205 68.436 32.3046 43.0928 34.4355 35.9247C36.5666 28.7573 39.6946 14.7047 37.3529 8.33585Z" fill="#F93B21"/>
  <path d="M29.1084 82.701C25.724 80.8782 19.0576 82.122 19.0576 82.122C19.0576 82.122 19.6433 91.1856 27.0981 89.7452C34.5522 88.3051 32.4928 84.5239 29.1084 82.701Z" fill="#F93B21"/>
</svg>